<?xml version="1.0" encoding="us-ascii" standalone="no"?><svg xmlns="http://www.w3.org/2000/svg" xmlns:xlink="http://www.w3.org/1999/xlink" contentStyleType="text/css" height="1401px" preserveAspectRatio="none" style="width:1027px;height:1401px;background:#FFFFFF;" version="1.1" viewBox="0 0 1027 1401" width="1027px" zoomAndPan="magnify"><defs/><g><text fill="#000000" font-family="sans-serif" font-size="14" font-weight="bold" lengthAdjust="spacing" textLength="321" x="349" y="27.9951">AutowareE2EAgent IO Diagram (Revised)</text><rect fill="#FFFFFF" height="1252.4453" style="stroke:#181818;stroke-width:1.0;" width="10" x="85.5" y="104.7266"/><rect fill="#FFFFFF" height="1185.1797" style="stroke:#181818;stroke-width:1.0;" width="10" x="90.5" y="162.9922"/><rect fill="#FFFFFF" height="1214.3125" style="stroke:#181818;stroke-width:1.0;" width="10" x="407.5" y="133.8594"/><rect fill="#FFFFFF" height="1243.4453" style="stroke:#181818;stroke-width:1.0;" width="10" x="584" y="104.7266"/><rect fill="#FFFFFF" height="1243.4453" style="stroke:#181818;stroke-width:1.0;" width="10" x="741" y="104.7266"/><rect fill="#FFFFFF" height="1243.4453" style="stroke:#181818;stroke-width:1.0;" width="10" x="876.5" y="104.7266"/><rect fill="none" height="279.3281" style="stroke:#000000;stroke-width:1.5;" width="912" x="51" y="271.3906"/><rect fill="none" height="210.9297" style="stroke:#000000;stroke-width:1.5;" width="477" x="486" y="658.1172"/><line style="stroke:#181818;stroke-width:0.5;stroke-dasharray:5.0,5.0;" x1="28" x2="28" y1="73.5938" y2="1366.1719"/><line style="stroke:#181818;stroke-width:0.5;stroke-dasharray:5.0,5.0;" x1="90" x2="90" y1="73.5938" y2="1366.1719"/><line style="stroke:#181818;stroke-width:0.5;stroke-dasharray:5.0,5.0;" x1="412" x2="412" y1="73.5938" y2="1366.1719"/><line style="stroke:#181818;stroke-width:0.5;stroke-dasharray:5.0,5.0;" x1="589" x2="589" y1="73.5938" y2="1366.1719"/><line style="stroke:#181818;stroke-width:0.5;stroke-dasharray:5.0,5.0;" x1="746" x2="746" y1="73.5938" y2="1366.1719"/><line style="stroke:#181818;stroke-width:0.5;stroke-dasharray:5.0,5.0;" x1="881" x2="881" y1="73.5938" y2="1366.1719"/><line style="stroke:#181818;stroke-width:0.5;stroke-dasharray:5.0,5.0;" x1="989" x2="989" y1="73.5938" y2="1366.1719"/><rect fill="#E2E2F0" height="30.2969" rx="2.5" ry="2.5" style="stroke:#181818;stroke-width:0.5;" width="46" x="5" y="42.2969"/><text fill="#000000" font-family="sans-serif" font-size="14" lengthAdjust="spacing" textLength="32" x="12" y="62.292">User</text><rect fill="#E2E2F0" height="30.2969" rx="2.5" ry="2.5" style="stroke:#181818;stroke-width:0.5;" width="46" x="5" y="1365.1719"/><text fill="#000000" font-family="sans-serif" font-size="14" lengthAdjust="spacing" textLength="32" x="12" y="1385.167">User</text><rect fill="#E2E2F0" height="30.2969" rx="2.5" ry="2.5" style="stroke:#181818;stroke-width:0.5;" width="59" x="61" y="42.2969"/><text fill="#000000" font-family="sans-serif" font-size="14" lengthAdjust="spacing" textLength="45" x="68" y="62.292">CARLA</text><rect fill="#E2E2F0" height="30.2969" rx="2.5" ry="2.5" style="stroke:#181818;stroke-width:0.5;" width="59" x="61" y="1365.1719"/><text fill="#000000" font-family="sans-serif" font-size="14" lengthAdjust="spacing" textLength="45" x="68" y="1385.167">CARLA</text><rect fill="#E2E2F0" height="30.2969" rx="2.5" ry="2.5" style="stroke:#181818;stroke-width:0.5;" width="147" x="339" y="42.2969"/><text fill="#000000" font-family="sans-serif" font-size="14" lengthAdjust="spacing" textLength="133" x="346" y="62.292">AutowareE2EAgent</text><rect fill="#E2E2F0" height="30.2969" rx="2.5" ry="2.5" style="stroke:#181818;stroke-width:0.5;" width="147" x="339" y="1365.1719"/><text fill="#000000" font-family="sans-serif" font-size="14" lengthAdjust="spacing" textLength="133" x="346" y="1385.167">AutowareE2EAgent</text><rect fill="#E2E2F0" height="30.2969" rx="2.5" ry="2.5" style="stroke:#181818;stroke-width:0.5;" width="186" x="496" y="42.2969"/><text fill="#000000" font-family="sans-serif" font-size="14" lengthAdjust="spacing" textLength="172" x="503" y="62.292">AutowareCarlaCppBridge</text><rect fill="#E2E2F0" height="30.2969" rx="2.5" ry="2.5" style="stroke:#181818;stroke-width:0.5;" width="186" x="496" y="1365.1719"/><text fill="#000000" font-family="sans-serif" font-size="14" lengthAdjust="spacing" textLength="172" x="503" y="1385.167">AutowareCarlaCppBridge</text><rect fill="#E2E2F0" height="30.2969" rx="2.5" ry="2.5" style="stroke:#181818;stroke-width:0.5;" width="108" x="692" y="42.2969"/><text fill="#000000" font-family="sans-serif" font-size="14" lengthAdjust="spacing" textLength="94" x="699" y="62.292">SensorBridge</text><rect fill="#E2E2F0" height="30.2969" rx="2.5" ry="2.5" style="stroke:#181818;stroke-width:0.5;" width="108" x="692" y="1365.1719"/><text fill="#000000" font-family="sans-serif" font-size="14" lengthAdjust="spacing" textLength="94" x="699" y="1385.167">SensorBridge</text><rect fill="#E2E2F0" height="30.2969" rx="2.5" ry="2.5" style="stroke:#181818;stroke-width:0.5;" width="143" x="810" y="42.2969"/><text fill="#000000" font-family="sans-serif" font-size="14" lengthAdjust="spacing" textLength="129" x="817" y="62.292">Autoware Universe</text><rect fill="#E2E2F0" height="30.2969" rx="2.5" ry="2.5" style="stroke:#181818;stroke-width:0.5;" width="143" x="810" y="1365.1719"/><text fill="#000000" font-family="sans-serif" font-size="14" lengthAdjust="spacing" textLength="129" x="817" y="1385.167">Autoware Universe</text><rect fill="#E2E2F0" height="30.2969" rx="2.5" ry="2.5" style="stroke:#181818;stroke-width:0.5;" width="52" x="963" y="42.2969"/><text fill="#000000" font-family="sans-serif" font-size="14" lengthAdjust="spacing" textLength="38" x="970" y="62.292">USER</text><rect fill="#E2E2F0" height="30.2969" rx="2.5" ry="2.5" style="stroke:#181818;stroke-width:0.5;" width="52" x="963" y="1365.1719"/><text fill="#000000" font-family="sans-serif" font-size="14" lengthAdjust="spacing" textLength="38" x="970" y="1385.167">USER</text><rect fill="#FFFFFF" height="1252.4453" style="stroke:#181818;stroke-width:1.0;" width="10" x="85.5" y="104.7266"/><rect fill="#FFFFFF" height="1185.1797" style="stroke:#181818;stroke-width:1.0;" width="10" x="90.5" y="162.9922"/><rect fill="#FFFFFF" height="1214.3125" style="stroke:#181818;stroke-width:1.0;" width="10" x="407.5" y="133.8594"/><rect fill="#FFFFFF" height="1243.4453" style="stroke:#181818;stroke-width:1.0;" width="10" x="584" y="104.7266"/><rect fill="#FFFFFF" height="1243.4453" style="stroke:#181818;stroke-width:1.0;" width="10" x="741" y="104.7266"/><rect fill="#FFFFFF" height="1243.4453" style="stroke:#181818;stroke-width:1.0;" width="10" x="876.5" y="104.7266"/><polygon fill="#181818" points="977,100.7266,987,104.7266,977,108.7266,981,104.7266" style="stroke:#181818;stroke-width:1.0;"/><line style="stroke:#181818;stroke-width:1.0;" x1="28" x2="983" y1="104.7266" y2="104.7266"/><text fill="#000000" font-family="sans-serif" font-size="13" font-style="italic" lengthAdjust="spacing" textLength="198" x="35" y="99.6606">Start Sim, AW and CPP Bridges</text><polygon fill="#181818" points="395.5,129.8594,405.5,133.8594,395.5,137.8594,399.5,133.8594" style="stroke:#181818;stroke-width:1.0;"/><line style="stroke:#181818;stroke-width:1.0;" x1="28" x2="401.5" y1="133.8594" y2="133.8594"/><text fill="#000000" font-family="sans-serif" font-size="13" font-style="italic" lengthAdjust="spacing" textLength="90" x="35" y="128.7935">Start Scenario</text><polygon fill="#181818" points="111.5,158.9922,101.5,162.9922,111.5,166.9922,107.5,162.9922" style="stroke:#181818;stroke-width:1.0;"/><line style="stroke:#181818;stroke-width:1.0;" x1="105.5" x2="406.5" y1="162.9922" y2="162.9922"/><text fill="#000000" font-family="sans-serif" font-size="13" font-style="italic" lengthAdjust="spacing" textLength="103" x="117.5" y="157.9263">Initiate Scenario</text><rect fill="#EEEEEE" height="3" style="stroke:#EEEEEE;stroke-width:1.0;" width="1020" x="0" y="191.5586"/><line style="stroke:#000000;stroke-width:1.0;" x1="0" x2="1020" y1="191.5586" y2="191.5586"/><line style="stroke:#000000;stroke-width:1.0;" x1="0" x2="1020" y1="194.5586" y2="194.5586"/><rect fill="#EEEEEE" height="23.1328" style="stroke:#000000;stroke-width:2.0;" width="152" x="434" y="180.9922"/><text fill="#000000" font-family="sans-serif" font-size="13" font-weight="bold" lengthAdjust="spacing" textLength="133" x="440" y="197.0591">1. System Startup</text><path d="M31,219.125 L31,259.125 L471,259.125 L471,229.125 L461,219.125 L31,219.125 " fill="#FEFFDD" style="stroke:#181818;stroke-width:0.5;"/><path d="M461,219.125 L461,229.125 L471,229.125 L461,219.125 " fill="#FEFFDD" style="stroke:#181818;stroke-width:0.5;"/><text fill="#000000" font-family="sans-serif" font-size="13" lengthAdjust="spacing" textLength="415" x="37" y="236.1919">This loop establishes the initial link between Carla and the bridge.</text><text fill="#000000" font-family="sans-serif" font-size="13" lengthAdjust="spacing" textLength="311" x="37" y="251.3247">This loop is executed five times at the beginning.</text><path d="M51,271.3906 L128,271.3906 L128,278.5234 L118,288.5234 L51,288.5234 L51,271.3906 " fill="#EEEEEE" style="stroke:#000000;stroke-width:1.5;"/><rect fill="none" height="279.3281" style="stroke:#000000;stroke-width:1.5;" width="912" x="51" y="271.3906"/><text fill="#000000" font-family="sans-serif" font-size="13" font-weight="bold" lengthAdjust="spacing" textLength="32" x="66" y="284.4575">loop</text><text fill="#000000" font-family="sans-serif" font-size="11" font-weight="bold" lengthAdjust="spacing" textLength="5" x="143" y="283.6011">[</text><text fill="#000000" font-family="sans-serif" font-size="11" font-weight="bold" lengthAdjust="spacing" textLength="119" x="148" y="283.6011">Trigger Five Times</text><text fill="#000000" font-family="sans-serif" font-size="11" font-weight="bold" lengthAdjust="spacing" textLength="5" x="267" y="283.6011">]</text><polygon fill="#181818" points="395.5,305.6563,405.5,309.6563,395.5,313.6563,399.5,309.6563" style="stroke:#181818;stroke-width:1.0;"/><line style="stroke:#181818;stroke-width:1.0;" x1="100.5" x2="401.5" y1="309.6563" y2="309.6563"/><text fill="#000000" font-family="sans-serif" font-size="13" font-style="italic" lengthAdjust="spacing" textLength="55" x="107.5" y="304.5903">SimData</text><polygon fill="#181818" points="572,334.7891,582,338.7891,572,342.7891,576,338.7891" style="stroke:#181818;stroke-width:1.0;"/><line style="stroke:#181818;stroke-width:1.0;" x1="100.5" x2="578" y1="338.7891" y2="338.7891"/><text fill="#000000" font-family="sans-serif" font-size="13" lengthAdjust="spacing" textLength="71" x="107.5" y="333.7231">/carla/clock</text><polygon fill="#181818" points="864.5,363.9219,874.5,367.9219,864.5,371.9219,868.5,367.9219" style="stroke:#181818;stroke-width:1.0;"/><line style="stroke:#181818;stroke-width:1.0;" x1="594" x2="870.5" y1="367.9219" y2="367.9219"/><text fill="#000000" font-family="sans-serif" font-size="13" lengthAdjust="spacing" textLength="36" x="601" y="362.856">/clock</text><polygon fill="#181818" points="428.5,393.0547,418.5,397.0547,428.5,401.0547,424.5,397.0547" style="stroke:#181818;stroke-width:1.0;"/><line style="stroke:#181818;stroke-width:1.0;" x1="422.5" x2="583" y1="397.0547" y2="397.0547"/><text fill="#000000" font-family="sans-serif" font-size="13" font-style="italic" lengthAdjust="spacing" textLength="99" x="434.5" y="391.9888">AW Timestamp</text><polygon fill="#181818" points="729,422.1875,739,426.1875,729,430.1875,733,426.1875" style="stroke:#181818;stroke-width:1.0;"/><line style="stroke:#181818;stroke-width:1.0;" x1="594" x2="735" y1="426.1875" y2="426.1875"/><text fill="#000000" font-family="sans-serif" font-size="13" font-style="italic" lengthAdjust="spacing" textLength="99" x="601" y="421.1216">AW Timestamp</text><polygon fill="#181818" points="729,451.3203,739,455.3203,729,459.3203,733,455.3203" style="stroke:#181818;stroke-width:1.0;"/><line style="stroke:#181818;stroke-width:1.0;" x1="100.5" x2="735" y1="455.3203" y2="455.3203"/><text fill="#000000" font-family="sans-serif" font-size="13" font-style="italic" lengthAdjust="spacing" textLength="73" x="107.5" y="450.2544">Sensordata</text><polygon fill="#181818" points="864.5,480.4531,874.5,484.4531,864.5,488.4531,868.5,484.4531" style="stroke:#181818;stroke-width:1.0;"/><line style="stroke:#181818;stroke-width:1.0;" x1="751" x2="870.5" y1="484.4531" y2="484.4531"/><text fill="#000000" font-family="sans-serif" font-size="13" font-style="italic" lengthAdjust="spacing" textLength="79" x="758" y="479.3872">sensor_data</text><polygon fill="#181818" points="605,509.5859,595,513.5859,605,517.5859,601,513.5859" style="stroke:#181818;stroke-width:1.0;"/><line style="stroke:#181818;stroke-width:1.0;" x1="599" x2="740" y1="513.5859" y2="513.5859"/><text fill="#000000" font-family="sans-serif" font-size="13" font-style="italic" lengthAdjust="spacing" textLength="79" x="611" y="508.52">sensor_data</text><polygon fill="#181818" points="111.5,538.7188,101.5,542.7188,111.5,546.7188,107.5,542.7188" style="stroke:#181818;stroke-width:1.0;"/><line style="stroke:#181818;stroke-width:1.0;" x1="105.5" x2="406.5" y1="542.7188" y2="542.7188"/><text fill="#000000" font-family="sans-serif" font-size="13" font-style="italic" lengthAdjust="spacing" textLength="283" x="117.5" y="537.6528">Control + Trigger Next Frame (initial trigger)</text><rect fill="#EEEEEE" height="3" style="stroke:#EEEEEE;stroke-width:1.0;" width="1020" x="0" y="578.2852"/><line style="stroke:#000000;stroke-width:1.0;" x1="0" x2="1020" y1="578.2852" y2="578.2852"/><line style="stroke:#000000;stroke-width:1.0;" x1="0" x2="1020" y1="581.2852" y2="581.2852"/><rect fill="#EEEEEE" height="23.1328" style="stroke:#000000;stroke-width:2.0;" width="380" x="320" y="567.7188"/><text fill="#000000" font-family="sans-serif" font-size="13" font-weight="bold" lengthAdjust="spacing" textLength="361" x="326" y="583.7856">2. Autoware Initialization &amp; Synchronization Loop</text><path d="M509,605.8516 L509,645.8516 L961,645.8516 L961,615.8516 L951,605.8516 L509,605.8516 " fill="#FEFFDD" style="stroke:#181818;stroke-width:0.5;"/><path d="M951,605.8516 L951,615.8516 L961,615.8516 L951,605.8516 " fill="#FEFFDD" style="stroke:#181818;stroke-width:0.5;"/><text fill="#000000" font-family="sans-serif" font-size="13" lengthAdjust="spacing" textLength="398" x="531.5" y="622.9185">This loop repeats until Autoware has successfully localized and</text><text fill="#000000" font-family="sans-serif" font-size="13" lengthAdjust="spacing" textLength="230" x="531.5" y="638.0513">is ready to send control commands.</text><path d="M486,658.1172 L563,658.1172 L563,665.25 L553,675.25 L486,675.25 L486,658.1172 " fill="#EEEEEE" style="stroke:#000000;stroke-width:1.5;"/><rect fill="none" height="210.9297" style="stroke:#000000;stroke-width:1.5;" width="477" x="486" y="658.1172"/><text fill="#000000" font-family="sans-serif" font-size="13" font-weight="bold" lengthAdjust="spacing" textLength="32" x="501" y="671.1841">loop</text><text fill="#000000" font-family="sans-serif" font-size="11" font-weight="bold" lengthAdjust="spacing" textLength="5" x="578" y="670.3276">[</text><text fill="#000000" font-family="sans-serif" font-size="11" font-weight="bold" lengthAdjust="spacing" textLength="300" x="583" y="670.3276">until Autoware_initialized and control received</text><text fill="#000000" font-family="sans-serif" font-size="11" font-weight="bold" lengthAdjust="spacing" textLength="5" x="883" y="670.3276">]</text><line style="stroke:#181818;stroke-width:1.0;" x1="594" x2="636" y1="696.3828" y2="696.3828"/><line style="stroke:#181818;stroke-width:1.0;" x1="636" x2="636" y1="696.3828" y2="709.3828"/><line style="stroke:#181818;stroke-width:1.0;" x1="595" x2="636" y1="709.3828" y2="709.3828"/><polygon fill="#181818" points="605,705.3828,595,709.3828,605,713.3828,601,709.3828" style="stroke:#181818;stroke-width:1.0;"/><text fill="#000000" font-family="sans-serif" font-size="13" font-style="italic" lengthAdjust="spacing" textLength="85" x="601" y="691.3169">Every 100ms</text><polygon fill="#181818" points="864.5,734.5156,874.5,738.5156,864.5,742.5156,868.5,738.5156" style="stroke:#181818;stroke-width:1.0;"/><line style="stroke:#181818;stroke-width:1.0;" x1="594" x2="870.5" y1="738.5156" y2="738.5156"/><text fill="#000000" font-family="sans-serif" font-size="13" lengthAdjust="spacing" textLength="36" x="601" y="733.4497">/clock</text><polygon fill="#181818" points="729,763.6484,739,767.6484,729,771.6484,733,767.6484" style="stroke:#181818;stroke-width:1.0;"/><line style="stroke:#181818;stroke-width:1.0;" x1="594" x2="735" y1="767.6484" y2="767.6484"/><text fill="#000000" font-family="sans-serif" font-size="13" font-style="italic" lengthAdjust="spacing" textLength="99" x="601" y="762.5825">AW Timestamp</text><polygon fill="#181818" points="864.5,792.7813,874.5,796.7813,864.5,800.7813,868.5,796.7813" style="stroke:#181818;stroke-width:1.0;"/><line style="stroke:#181818;stroke-width:1.0;" x1="751" x2="870.5" y1="796.7813" y2="796.7813"/><text fill="#000000" font-family="sans-serif" font-size="13" font-style="italic" lengthAdjust="spacing" textLength="79" x="758" y="791.7153">sensor_data</text><polygon fill="#181818" points="864.5,821.9141,874.5,825.9141,864.5,829.9141,868.5,825.9141" style="stroke:#181818;stroke-width:1.0;"/><line style="stroke:#181818;stroke-width:1.0;" x1="594" x2="870.5" y1="825.9141" y2="825.9141"/><text fill="#000000" font-family="sans-serif" font-size="13" font-style="italic" lengthAdjust="spacing" textLength="213" x="601" y="820.8481">Sensordata, Goalpose, Engage,...</text><path d="M576,838.9141 L576,863.9141 L916,863.9141 L916,848.9141 L906,838.9141 L576,838.9141 " fill="#FEFFDD" style="stroke:#181818;stroke-width:0.5;"/><path d="M906,838.9141 L906,848.9141 L916,848.9141 L906,838.9141 " fill="#FEFFDD" style="stroke:#181818;stroke-width:0.5;"/><text fill="#000000" font-family="sans-serif" font-size="13" lengthAdjust="spacing" textLength="319" x="582" y="855.981">Repeats last sensor data with updated timestamp</text><polygon fill="#181818" points="605,893.1797,595,897.1797,605,901.1797,601,897.1797" style="stroke:#181818;stroke-width:1.0;"/><line style="stroke:#181818;stroke-width:1.0;" x1="599" x2="875.5" y1="897.1797" y2="897.1797"/><text fill="#000000" font-family="sans-serif" font-size="13" font-style="italic" lengthAdjust="spacing" textLength="79" x="611" y="892.1138">control_cmd</text><text fill="#000000" font-family="sans-serif" font-size="13" lengthAdjust="spacing" textLength="137" x="694" y="892.1138">' Sent when initialized</text><polygon fill="#181818" points="729,922.3125,739,926.3125,729,930.3125,733,926.3125" style="stroke:#181818;stroke-width:1.0;"/><line style="stroke:#181818;stroke-width:1.0;" x1="594" x2="735" y1="926.3125" y2="926.3125"/><text fill="#000000" font-family="sans-serif" font-size="13" font-style="italic" lengthAdjust="spacing" textLength="94" x="601" y="921.2466">Exit Sync Loop</text><rect fill="#EEEEEE" height="3" style="stroke:#EEEEEE;stroke-width:1.0;" width="1020" x="0" y="954.8789"/><line style="stroke:#000000;stroke-width:1.0;" x1="0" x2="1020" y1="954.8789" y2="954.8789"/><line style="stroke:#000000;stroke-width:1.0;" x1="0" x2="1020" y1="957.8789" y2="957.8789"/><rect fill="#EEEEEE" height="23.1328" style="stroke:#000000;stroke-width:2.0;" width="198" x="411" y="944.3125"/><text fill="#000000" font-family="sans-serif" font-size="13" font-weight="bold" lengthAdjust="spacing" textLength="179" x="417" y="960.3794">3. Runtime Control Loop</text><polygon fill="#181818" points="428.5,994.5781,418.5,998.5781,428.5,1002.5781,424.5,998.5781" style="stroke:#181818;stroke-width:1.0;"/><line style="stroke:#181818;stroke-width:1.0;" x1="422.5" x2="583" y1="998.5781" y2="998.5781"/><text fill="#000000" font-family="sans-serif" font-size="13" font-style="italic" lengthAdjust="spacing" textLength="79" x="434.5" y="993.5122">control_cmd</text><polygon fill="#181818" points="111.5,1023.7109,101.5,1027.7109,111.5,1031.7109,107.5,1027.7109" style="stroke:#181818;stroke-width:1.0;"/><line style="stroke:#181818;stroke-width:1.0;" x1="105.5" x2="406.5" y1="1027.7109" y2="1027.7109"/><text fill="#000000" font-family="sans-serif" font-size="13" font-style="italic" lengthAdjust="spacing" textLength="190" x="117.5" y="1022.645">Control + Trigger Next Frame</text><polygon fill="#181818" points="395.5,1052.8438,405.5,1056.8438,395.5,1060.8438,399.5,1056.8438" style="stroke:#181818;stroke-width:1.0;"/><line style="stroke:#181818;stroke-width:1.0;" x1="100.5" x2="401.5" y1="1056.8438" y2="1056.8438"/><text fill="#000000" font-family="sans-serif" font-size="13" font-style="italic" lengthAdjust="spacing" textLength="55" x="107.5" y="1051.7778">SimData</text><polygon fill="#181818" points="572,1081.9766,582,1085.9766,572,1089.9766,576,1085.9766" style="stroke:#181818;stroke-width:1.0;"/><line style="stroke:#181818;stroke-width:1.0;" x1="100.5" x2="578" y1="1085.9766" y2="1085.9766"/><text fill="#000000" font-family="sans-serif" font-size="13" lengthAdjust="spacing" textLength="71" x="107.5" y="1080.9106">/carla/clock</text><polygon fill="#181818" points="729,1111.1094,739,1115.1094,729,1119.1094,733,1115.1094" style="stroke:#181818;stroke-width:1.0;"/><line style="stroke:#181818;stroke-width:1.0;" x1="100.5" x2="735" y1="1115.1094" y2="1115.1094"/><text fill="#000000" font-family="sans-serif" font-size="13" font-style="italic" lengthAdjust="spacing" textLength="73" x="107.5" y="1110.0435">Sensordata</text><polygon fill="#181818" points="864.5,1140.2422,874.5,1144.2422,864.5,1148.2422,868.5,1144.2422" style="stroke:#181818;stroke-width:1.0;"/><line style="stroke:#181818;stroke-width:1.0;" x1="594" x2="870.5" y1="1144.2422" y2="1144.2422"/><text fill="#000000" font-family="sans-serif" font-size="13" lengthAdjust="spacing" textLength="36" x="601" y="1139.1763">/clock</text><polygon fill="#181818" points="428.5,1169.375,418.5,1173.375,428.5,1177.375,424.5,1173.375" style="stroke:#181818;stroke-width:1.0;"/><line style="stroke:#181818;stroke-width:1.0;" x1="422.5" x2="583" y1="1173.375" y2="1173.375"/><text fill="#000000" font-family="sans-serif" font-size="13" font-style="italic" lengthAdjust="spacing" textLength="99" x="434.5" y="1168.3091">AW Timestamp</text><polygon fill="#181818" points="729,1198.5078,739,1202.5078,729,1206.5078,733,1202.5078" style="stroke:#181818;stroke-width:1.0;"/><line style="stroke:#181818;stroke-width:1.0;" x1="594" x2="735" y1="1202.5078" y2="1202.5078"/><text fill="#000000" font-family="sans-serif" font-size="13" font-style="italic" lengthAdjust="spacing" textLength="99" x="601" y="1197.4419">AW Timestamp</text><polygon fill="#181818" points="864.5,1227.6406,874.5,1231.6406,864.5,1235.6406,868.5,1231.6406" style="stroke:#181818;stroke-width:1.0;"/><line style="stroke:#181818;stroke-width:1.0;" x1="751" x2="870.5" y1="1231.6406" y2="1231.6406"/><text fill="#000000" font-family="sans-serif" font-size="13" font-style="italic" lengthAdjust="spacing" textLength="79" x="758" y="1226.5747">sensor_data</text><polygon fill="#181818" points="864.5,1256.7734,874.5,1260.7734,864.5,1264.7734,868.5,1260.7734" style="stroke:#181818;stroke-width:1.0;"/><line style="stroke:#181818;stroke-width:1.0;" x1="417.5" x2="870.5" y1="1260.7734" y2="1260.7734"/><text fill="#000000" font-family="sans-serif" font-size="13" font-style="italic" lengthAdjust="spacing" textLength="213" x="424.5" y="1255.7075">Sensordata, Goalpose, Engage,...</text><polygon fill="#181818" points="605,1285.9063,595,1289.9063,605,1293.9063,601,1289.9063" style="stroke:#181818;stroke-width:1.0;"/><line style="stroke:#181818;stroke-width:1.0;" x1="599" x2="875.5" y1="1289.9063" y2="1289.9063"/><text fill="#000000" font-family="sans-serif" font-size="13" font-style="italic" lengthAdjust="spacing" textLength="79" x="611" y="1284.8403">control_cmd</text><polygon fill="#181818" points="428.5,1315.0391,418.5,1319.0391,428.5,1323.0391,424.5,1319.0391" style="stroke:#181818;stroke-width:1.0;"/><line style="stroke:#181818;stroke-width:1.0;" x1="422.5" x2="583" y1="1319.0391" y2="1319.0391"/><text fill="#000000" font-family="sans-serif" font-size="13" font-style="italic" lengthAdjust="spacing" textLength="79" x="434.5" y="1313.9731">control_cmd</text><polygon fill="#181818" points="106.5,1344.1719,96.5,1348.1719,106.5,1352.1719,102.5,1348.1719" style="stroke:#181818;stroke-width:1.0;"/><line style="stroke:#181818;stroke-width:1.0;" x1="100.5" x2="411.5" y1="1348.1719" y2="1348.1719"/><text fill="#000000" font-family="sans-serif" font-size="13" font-style="italic" lengthAdjust="spacing" textLength="283" x="112.5" y="1343.106">Control + Trigger Next Frame (initial trigger)</text><!--SRC=[hPLDRzim38Rl_XL43rkR9N7RtJPaWEkcMu5W2v86FHQApJf2RScGvARPhnybEOxTV603bajiaNn9aOzamqsE45L6hfd2yVKuob0OkFy5jvnbYXLmFiDNhZ6z28AIASCJNZBoM6XKdOMpE9fDeZDW6jmJTAtlKpZ7Q7hCBMOgPt5PtYYUPkYT7-Ekxno5bghbCRavB0OBmLzHwQrE4DZgOV0D5lFnx0k4uTnG7CnvqISpC952F9s2bzPX6B34y5Tcq1NHl52-bc7txFRVvA1Djb8aA9ZYigCvZGBR2V9raTRxNd33hV5GWDSFHYEu6i9yemqMuEIh4aQZG4ZoaRHXgzollHzMN4CkPGce3LlcNAzGWraXS9SgXvoB5rYYMICASFrtZR0kIzU88RHKw1_VCAaCfl1CtGN32n9anWTWneNW8Xi6I1gsei25zNeFYcSPrNPdWnviKAyN0FqyDQs6yUAM6KORxreVOx8cjhumoMNouioqwetMjhVg1McoBfzXHLchrWwJcoFs9gltyCIbkwecDqtMK3lZqm5hVDZyVkQn54R973x1jaS_ySt07Pr2XFFjc8otNP28RQtjgaFXUjWSO_3qvFmtCrmA-42GY6IbfDYkJEmikgWynfPzLzXkoWfBP4P39GpFT_ehEaQwIXBK-hdAymqv9pOTiK38E0rIKCZI3HW9sXQQrBjBP56GazudevlaYMytuLKR0OK94ZjfZSr760m6Rf0_a8x0akg546BB02pAr9wNyoXVius6MUMOlB0HNMhSXCRKXmrSNLuMkel7OQgEGdCQYhPc2wW-V9SiBwN6Fen5nZBi3uV3EcOt9hfoeFxDwjdaJ1lmUS0gmPgR5LHkwwa_bhOu5zUql477bzJgGjtcfwH8mv2wExVVW_MAxeJMGFRxC7xZnc7csAAw7PIVXxRfjWROqhr5py-jlhs8bfRwLwfn3QeI6fuj_8FbPk0U6WRi0Bk7krDsy2z7YzoFNpqdhfrJTyC-E2UlebD47QUftkHVatHypF-jbmUlgHJRNydM6y7SiSNjL__PQjkdqHy0]--></g></svg>